<svg width="45" height="32" viewBox="0 0 45 32" fill="none" xmlns="http://www.w3.org/2000/svg">
    <path fill-rule="evenodd" clip-rule="evenodd" d="M25.2441 17.2317H24.4934C24.4194 17.2276 24.361 17.1638 24.3601 17.0858V13.0188C24.368 12.9416 24.4309 12.8836 24.5047 12.8856H25.2035C25.2671 12.8877 25.3216 12.9341 25.3368 12.9991V13.6211H25.3515C25.5622 13.0651 25.8575 12.8 26.3776 12.8C26.7149 12.8 27.0443 12.9283 27.257 13.2789C27.4537 13.6043 27.4537 14.1519 27.4537 14.5453V17.1041C27.4427 17.1787 27.3808 17.2333 27.309 17.2317H26.5516C26.4837 17.2286 26.4275 17.1749 26.4182 17.1041V14.8959C26.4182 14.8614 26.4185 14.8255 26.4188 14.7889C26.4225 14.3541 26.4271 13.8006 25.9469 13.8006C25.7535 13.81 25.5831 13.9372 25.5108 14.126C25.4055 14.3742 25.3915 14.6225 25.3915 14.8973V17.0858C25.3886 17.1684 25.3233 17.2333 25.2448 17.2317H25.2441ZM22.0639 12.8056C23.182 12.8056 23.7867 13.8154 23.7867 15.0986C23.7867 16.339 23.1199 17.3229 22.0639 17.3229C20.9671 17.3229 20.3697 16.3131 20.3697 15.0558C20.3697 13.7985 20.9744 12.8056 22.0639 12.8056ZM22.0712 13.6359C21.5158 13.6359 21.4805 14.431 21.4805 14.9275L21.4805 14.9439C21.4804 15.447 21.4802 16.4842 22.0639 16.4842C22.6539 16.4842 22.6759 15.6287 22.6759 15.107C22.6759 14.7648 22.6619 14.3539 22.5632 14.0292C22.4786 13.7487 22.3099 13.6359 22.0712 13.6359ZM8.14529 17.2402H7.39256C7.32273 17.2363 7.26605 17.1794 7.25921 17.1062V13.0391C7.26175 12.9576 7.3257 12.8932 7.40323 12.894H8.10529C8.17723 12.8981 8.23466 12.9586 8.23863 13.0342V13.565H8.25264C8.43532 13.051 8.78001 12.8119 9.24406 12.8119C9.7081 12.8119 10.0101 13.051 10.2215 13.565C10.3626 13.1695 10.6955 12.8847 11.0925 12.82C11.4894 12.7554 11.8887 12.9209 12.137 13.253C12.3418 13.5458 12.3352 13.9536 12.3291 14.3367C12.328 14.4013 12.327 14.4652 12.327 14.5278V17.0936C12.3263 17.1333 12.3106 17.1711 12.2833 17.1986C12.256 17.2261 12.2194 17.2411 12.1816 17.2402H11.4289C11.3549 17.2361 11.2965 17.1722 11.2956 17.0943V14.9387C11.2956 14.906 11.2961 14.864 11.2967 14.8163V14.8162C11.2991 14.6139 11.3028 14.3088 11.2742 14.1772C11.2182 13.9037 11.0495 13.8266 10.8315 13.8266C10.6317 13.833 10.4547 13.964 10.3815 14.1597C10.3097 14.3511 10.3103 14.6592 10.3107 14.8875L10.3108 14.9387V17.0936C10.3101 17.1332 10.2945 17.1709 10.2673 17.1984C10.2402 17.2258 10.2038 17.2409 10.1661 17.2402H9.4114C9.3375 17.2357 9.27934 17.1721 9.27806 17.0943V14.9387C9.27806 14.8945 9.27869 14.8483 9.27934 14.8009C9.28535 14.3612 9.2928 13.8168 8.81135 13.8168C8.29057 13.8168 8.29098 14.4364 8.29129 14.905L8.29131 14.9387V17.0936C8.29061 17.1333 8.27488 17.1711 8.2476 17.1986C8.22032 17.2261 8.18374 17.2411 8.14596 17.2402H8.14529ZM5.90443 17.2899C5.96161 17.3238 6.03287 17.3162 6.08244 17.271L6.08845 17.2724C6.23846 17.1314 6.51182 16.8818 6.66583 16.7465C6.7245 16.6939 6.71383 16.6062 6.66583 16.5361C6.65118 16.5149 6.63643 16.4941 6.62177 16.4734C6.49833 16.2993 6.38114 16.1341 6.38114 15.8019V14.5685C6.38114 14.5288 6.38133 14.4894 6.38152 14.4503V14.4502V14.4501V14.4501V14.45V14.4499V14.4498V14.4498V14.4497C6.3838 13.9734 6.38589 13.5375 6.04778 13.2046C5.75975 12.9129 5.28104 12.8105 4.91434 12.8105C4.19761 12.8105 3.39754 13.0917 3.23019 14.0229C3.22325 14.0606 3.23131 14.0996 3.25248 14.1309C3.27364 14.1622 3.30607 14.183 3.3422 14.1884L4.06627 14.2719C4.13698 14.2606 4.19167 14.2008 4.19961 14.126C4.26228 13.8055 4.51831 13.6506 4.80567 13.6506C4.96168 13.6506 5.13636 13.7102 5.22837 13.856C5.3228 14.0025 5.32133 14.1968 5.32001 14.3714L5.31971 14.431V14.5334C5.25124 14.5415 5.17948 14.5493 5.10556 14.5572C4.70803 14.5999 4.24821 14.6492 3.90359 14.8083C3.43688 15.0229 3.10352 15.4597 3.10352 16.1027C3.10352 16.926 3.59689 17.3376 4.23095 17.3376C4.76633 17.3376 5.05902 17.2051 5.47306 16.7619C5.49302 16.7924 5.51103 16.8207 5.52801 16.8473L5.52802 16.8474L5.52802 16.8474C5.62679 17.0023 5.6911 17.1032 5.90443 17.2899ZM5.32307 15.3782L5.32304 15.3398V15.1694C4.77833 15.1694 4.20294 15.2921 4.20294 15.9667C4.20294 16.3103 4.37163 16.5417 4.66032 16.5417C4.87234 16.5417 5.06235 16.4043 5.18236 16.1813C5.32356 15.9172 5.32333 15.6699 5.32307 15.3782ZM16.5374 16.5333C16.5227 16.512 16.5079 16.4912 16.4932 16.4705C16.3698 16.2965 16.2527 16.1313 16.2527 15.7998V14.5657C16.2527 14.5235 16.2529 14.4815 16.2531 14.4399V14.4398V14.4398V14.4397V14.4396V14.4395V14.4394V14.4394C16.2557 13.9655 16.2581 13.533 15.9193 13.2018C15.6306 12.9101 15.1519 12.8077 14.7859 12.8077C14.0691 12.8077 13.2691 13.0882 13.1011 14.0201C13.0939 14.058 13.102 14.0973 13.1233 14.1288C13.1446 14.1602 13.1773 14.1811 13.2137 14.1863L13.9438 14.2691C14.0144 14.2575 14.069 14.1978 14.0771 14.1232C14.1405 13.8027 14.3952 13.6478 14.6825 13.6478C14.8379 13.6478 15.0159 13.7081 15.1052 13.8539C15.2003 13.9998 15.1989 14.1943 15.1975 14.3689L15.1972 14.4282V14.5285C15.1302 14.5364 15.0599 14.5438 14.9876 14.5515C14.5889 14.5939 14.1265 14.643 13.7811 14.8027C13.3091 15.0173 12.9777 15.4541 12.9777 16.0978C12.9777 16.9204 13.4711 17.332 14.1052 17.332C14.6385 17.332 14.9332 17.1994 15.3466 16.7563C15.3662 16.7864 15.384 16.8142 15.4007 16.8404C15.5009 16.9974 15.5644 17.0968 15.7786 17.2843C15.8358 17.3179 15.9068 17.3107 15.9566 17.2661C16.1067 17.1258 16.38 16.8755 16.534 16.7401C16.5987 16.6918 16.588 16.6062 16.5374 16.5333ZM15.0572 16.1778C14.9379 16.4001 14.7472 16.5375 14.5359 16.5375C14.2472 16.5375 14.0785 16.3061 14.0785 15.9632C14.0785 15.2879 14.6539 15.1659 15.1986 15.1659V15.337L15.1986 15.3684C15.1988 15.6638 15.1989 15.9123 15.0572 16.1778ZM17.1748 13.6043V13.0251C17.173 12.9854 17.1873 12.9469 17.2141 12.9189C17.2409 12.891 17.2778 12.8763 17.3154 12.8785H19.791C19.8286 12.8772 19.8652 12.8921 19.8921 12.9198C19.919 12.9474 19.9341 12.9855 19.9337 13.0251V13.5237C19.9337 13.6071 19.867 13.7165 19.7477 13.889L18.4649 15.8145C18.9409 15.8026 19.4443 15.8776 19.877 16.1336C19.9569 16.1784 20.0078 16.2649 20.0103 16.3601V16.9828C20.0103 17.0683 19.9217 17.1672 19.8277 17.116C19.0065 16.6721 18.0318 16.6739 17.2121 17.1209C17.1261 17.1693 17.0361 17.0718 17.0361 16.9863V16.3937C17.0282 16.2541 17.0603 16.1151 17.1281 15.9948L18.6142 13.7509H17.3181C17.2804 13.7524 17.2437 13.7376 17.2166 13.7099C17.1895 13.6822 17.1744 13.644 17.1748 13.6043ZM30.2592 13.3953C30.4485 13.2198 30.6647 13.0795 30.8986 12.9802C31.1197 12.8876 31.3554 12.84 31.5934 12.84C31.8299 12.8353 32.0645 12.8851 32.2808 12.9858C32.4846 13.0841 32.6631 13.2322 32.8015 13.4178C32.9521 13.6234 33.0635 13.8577 33.1295 14.1078C33.2095 14.4042 33.2481 14.7113 33.2442 15.0194C33.2478 15.334 33.2065 15.6474 33.1215 15.9492C33.0504 16.2052 32.9339 16.4448 32.7781 16.6553C32.6335 16.8467 32.4499 17.0015 32.2407 17.1083C32.021 17.2156 31.7809 17.2686 31.5387 17.2633C31.086 17.2711 30.6479 17.0953 30.3152 16.7724V18.719C30.3216 18.7648 30.307 18.811 30.2759 18.8438C30.2448 18.8765 30.2008 18.8919 30.1572 18.8852H29.6905C29.647 18.8919 29.603 18.8765 29.5719 18.8438C29.5407 18.811 29.5262 18.7648 29.5325 18.719V13.1296C29.5264 13.0838 29.5411 13.0378 29.5722 13.0051C29.6032 12.9725 29.647 12.957 29.6905 12.9634H30.0379C30.0832 12.9589 30.1283 12.9742 30.1627 13.0055C30.1971 13.0369 30.2177 13.0817 30.2199 13.1296L30.2592 13.3953ZM31.3727 13.5033C30.9899 13.5065 30.6185 13.6406 30.3146 13.8855V16.1995C30.6515 16.466 30.9989 16.599 31.3567 16.5985C32.083 16.5985 32.4461 16.0843 32.4461 15.0558C32.4461 14.0274 32.0883 13.5096 31.3727 13.5026V13.5033ZM34.2303 13.7081L34.2896 13.687C34.6651 13.5654 35.0554 13.5016 35.4484 13.4977C35.7644 13.4982 35.9855 13.5592 36.1118 13.6807C36.238 13.8023 36.3011 14.0126 36.3011 14.3118V14.8574C35.9759 14.7696 35.642 14.7226 35.3064 14.7171C34.8432 14.7167 34.4747 14.837 34.2009 15.0783C33.9271 15.3195 33.7902 15.642 33.7902 16.0459C33.7911 16.4223 33.9022 16.7226 34.1236 16.947C34.3449 17.1714 34.645 17.2836 35.0237 17.2836C35.2578 17.2826 35.4897 17.235 35.7071 17.1433C35.9363 17.0492 36.1485 16.9145 36.3344 16.7451L36.3744 17.0192C36.3764 17.0648 36.3961 17.1074 36.4289 17.1373C36.4617 17.1671 36.5047 17.1815 36.5478 17.177H36.8878C36.9313 17.1834 36.9751 17.1679 37.0062 17.1353C37.0372 17.1026 37.0519 17.0565 37.0458 17.0108V14.1737C37.0454 13.7193 36.9267 13.3844 36.6898 13.1688C36.4529 12.9533 36.0844 12.8456 35.5844 12.8456C35.3355 12.8456 35.0872 12.8691 34.8423 12.9157C34.6286 12.9516 34.4194 13.013 34.2189 13.0987C34.1704 13.116 34.127 13.1462 34.0929 13.1864C34.067 13.2358 34.0559 13.2922 34.0609 13.3484V13.5706C34.0609 13.6709 34.0969 13.7207 34.1636 13.7207C34.1863 13.7203 34.2088 13.7161 34.2303 13.7081ZM35.7584 16.5543C35.5841 16.6228 35.3998 16.6591 35.2137 16.6616C35.0083 16.6621 34.8503 16.6055 34.7396 16.4919C34.629 16.3783 34.5736 16.2163 34.5736 16.006C34.5732 15.524 34.8708 15.283 35.4664 15.283C35.6075 15.2833 35.7485 15.2932 35.8884 15.3125C36.0279 15.3309 36.1663 15.3572 36.3031 15.391V16.2388C36.1377 16.3722 35.9541 16.4786 35.7584 16.5543ZM39.1214 18.7351C39.308 18.5687 39.4727 18.2945 39.6154 17.9126L41.3529 13.2621C41.3816 13.1991 41.4003 13.1316 41.4082 13.0623C41.4082 12.9963 41.3716 12.9627 41.2976 12.9627H40.8555C40.7948 12.9566 40.7338 12.9711 40.6815 13.0041C40.6369 13.0564 40.6047 13.1191 40.5875 13.1871L39.5207 16.4092L38.4146 13.1871C38.3974 13.1191 38.3652 13.0564 38.3206 13.0041C38.2683 12.9711 38.2073 12.9566 38.1466 12.9627H37.6726C37.5992 12.9627 37.5626 12.9963 37.5626 13.0623C37.5701 13.1316 37.5886 13.1991 37.6172 13.2621L39.1387 17.2177L38.9887 17.6384C38.8993 17.9044 38.7993 18.0872 38.6887 18.1868C38.5553 18.2942 38.3896 18.3472 38.2219 18.3361C38.1507 18.3377 38.0795 18.332 38.0093 18.3193C37.9702 18.3105 37.9305 18.3051 37.8906 18.3032C37.8112 18.3032 37.7719 18.3557 37.7719 18.4609V18.6769C37.7675 18.7364 37.7813 18.7959 37.8112 18.8466C37.8441 18.8869 37.8886 18.9148 37.9379 18.9258C38.0847 18.9666 38.2361 18.9862 38.388 18.984C38.6902 18.9845 38.9347 18.9015 39.1214 18.7351Z" fill="#232F3E"/>
    <path fill-rule="evenodd" clip-rule="evenodd" d="M18.4129 19.8262C18.5842 19.3781 18.9656 18.374 18.7842 18.1307H18.7856C18.605 17.8868 17.5916 18.0148 17.1357 18.0723L17.1348 18.0725C16.9961 18.09 16.9747 17.9631 17.0994 17.8712C17.9088 17.2731 19.2349 17.4442 19.389 17.6461C19.543 17.8481 19.347 19.2463 18.5889 19.9139C18.4722 20.0162 18.3609 19.9615 18.4129 19.8262ZM12.9664 20.5176C14.7292 20.5176 16.7821 19.9321 18.1962 18.8347V18.8368C18.4302 18.6517 18.2295 18.3796 17.9908 18.4862C16.4473 19.1709 14.7903 19.5284 13.1151 19.538C10.7909 19.538 8.54267 18.8676 6.72384 17.7548C6.56449 17.6573 6.44582 17.8291 6.57916 17.9547C8.33018 19.6162 10.608 20.5302 12.9664 20.5176Z" fill="#FF9900"/>
</svg>