<svg width="45" height="32" viewBox="0 0 45 32" fill="none" xmlns="http://www.w3.org/2000/svg">
    <path fill-rule="evenodd" clip-rule="evenodd" d="M13.6374 11.9412C13.31 12.345 12.7863 12.6635 12.2626 12.618C12.1972 12.072 12.4536 11.4919 12.7536 11.1337C13.0809 10.7185 13.6537 10.4228 14.1174 10.4C14.172 10.9687 13.9592 11.5261 13.6374 11.9412ZM14.112 12.7261C13.6506 12.6984 13.2296 12.8707 12.8896 13.0099C12.6707 13.0995 12.4854 13.1754 12.3445 13.1754C12.1863 13.1754 11.9933 13.0954 11.7767 13.0057C11.4928 12.8882 11.1682 12.7537 10.8279 12.7602C10.0478 12.7716 9.32224 13.2322 8.924 13.9659C8.10571 15.4332 8.71125 17.6057 9.50226 18.8C9.88959 19.3915 10.3533 20.0398 10.9643 20.0171C11.2331 20.0065 11.4264 19.921 11.6265 19.8324C11.8569 19.7305 12.0962 19.6246 12.4699 19.6246C12.8307 19.6246 13.0595 19.7278 13.2792 19.8267C13.4881 19.9209 13.6887 20.0112 13.9865 20.0057C14.6193 19.9943 15.0176 19.4142 15.4049 18.8228C15.8229 18.1879 16.0065 17.5684 16.0344 17.4744L16.0377 17.4635C16.037 17.4628 16.0319 17.4604 16.0228 17.456L16.0228 17.456L16.0227 17.456C15.883 17.3893 14.815 16.8796 14.8048 15.5128C14.7945 14.3656 15.6519 13.7843 15.7869 13.6928L15.7869 13.6928C15.7951 13.6872 15.8006 13.6835 15.8031 13.6815C15.2576 12.8398 14.4066 12.7488 14.112 12.7261ZM18.4926 19.9431V11.0768H21.6839C23.3314 11.0768 24.4825 12.2597 24.4825 13.9886C24.4825 15.7175 23.3096 16.9119 21.6403 16.9119H19.8127V19.9431H18.4926ZM19.8127 12.237H21.3348C22.4804 12.237 23.135 12.8739 23.135 13.9943C23.135 15.1147 22.4804 15.7573 21.3293 15.7573H19.8127V12.237ZM28.8412 18.8796C28.4921 19.5735 27.7229 20.0114 26.8937 20.0114C25.6663 20.0114 24.8098 19.2493 24.8098 18.1005C24.8098 16.963 25.639 16.309 27.1719 16.2123L28.8194 16.11V15.6209C28.8194 14.8986 28.3666 14.5062 27.5592 14.5062C26.8937 14.5062 26.4082 14.8645 26.31 15.4104H25.1207C25.1589 14.2616 26.1954 13.4256 27.5974 13.4256C29.1085 13.4256 30.0905 14.2502 30.0905 15.5299V19.9431H28.8685V18.8796H28.8412ZM27.2483 18.9592C26.5446 18.9592 26.0972 18.6066 26.0972 18.0664C26.0972 17.509 26.5282 17.1848 27.3519 17.1336L28.8194 17.037V17.5374C28.8194 18.3678 28.143 18.9592 27.2483 18.9592ZM34.1438 20.29C33.6146 21.8427 33.0091 22.3545 31.7216 22.3545C31.6234 22.3545 31.2961 22.3431 31.2197 22.3204V21.2569C31.3016 21.2682 31.5034 21.2796 31.6071 21.2796C32.1908 21.2796 32.5181 21.0237 32.7199 20.3583L32.8399 19.9659L30.6033 13.5109H31.9835L33.5382 18.7488H33.5655L35.1203 13.5109H36.4623L34.1438 20.29Z" fill="black"/>
</svg>
