<svg width="45" height="32" viewBox="0 0 45 32" fill="none" xmlns="http://www.w3.org/2000/svg">
    <path fill-rule="evenodd" clip-rule="evenodd" d="M21.6602 19.2946V15.6857V15.685H23.5535C24.3342 15.6855 24.9902 15.4325 25.5217 14.9262C26.0588 14.4457 26.3591 13.7548 26.3438 13.0347C26.3544 12.3185 26.0547 11.6328 25.5217 11.1538C24.9949 10.6447 24.2863 10.3669 23.5535 10.3822H20.5142V19.2946H21.6602ZM21.6602 14.5906V11.4795V11.4788H23.582C24.0104 11.4667 24.4233 11.6389 24.7159 11.9516C25.0104 12.2376 25.1765 12.6304 25.1765 13.0407C25.1765 13.451 25.0104 13.8438 24.7159 14.1298C24.4197 14.4359 24.008 14.6032 23.582 14.5906H21.6602Z" fill="#5F6368"/>
    <path fill-rule="evenodd" clip-rule="evenodd" d="M30.9902 13.6761C30.5 13.2238 29.8314 12.9977 28.9844 12.9977C27.8963 12.9977 27.0746 13.3959 26.5194 14.1924L27.5287 14.8274C27.9017 14.2879 28.4083 14.0181 29.0484 14.0181C29.4566 14.0134 29.8515 14.1624 30.1546 14.4356C30.4567 14.6851 30.6305 15.0572 30.6279 15.4489V15.7106C30.1875 15.4617 29.6271 15.3372 28.9466 15.3372C28.1494 15.3382 27.5121 15.525 27.0347 15.8976C26.5574 16.2702 26.3187 16.772 26.3187 17.403C26.3083 17.9776 26.5577 18.5262 26.9977 18.8964C27.4504 19.2946 28.013 19.4937 28.6854 19.4937C29.4731 19.4937 30.1043 19.1452 30.5788 18.4484H30.6286V19.2946H31.7248V15.5364C31.7253 14.7484 31.4804 14.1284 30.9902 13.6761ZM27.8818 18.1746C27.6418 18.0017 27.5002 17.7235 27.5017 17.4279C27.5017 17.0958 27.6576 16.8192 27.9715 16.5916C28.2823 16.3674 28.6705 16.2553 29.136 16.2553C29.7752 16.2553 30.2735 16.3975 30.6308 16.682C30.6308 17.1627 30.441 17.5815 30.0614 17.9385C29.7194 18.2801 29.2559 18.4724 28.7723 18.4732C28.4499 18.4793 28.1353 18.3738 27.8818 18.1746Z" fill="#5F6368"/>
    <path fill-rule="evenodd" clip-rule="evenodd" d="M38.0172 13.1968L34.1906 21.9826H33.0075L34.4276 18.9084L31.9114 13.1968H33.157L34.9757 17.5772H35.0006L36.7694 13.1968H38.0172Z" fill="#5F6368"/>
    <path fill-rule="evenodd" clip-rule="evenodd" d="M17.0291 14.9077C17.0295 14.5588 17 14.2105 16.9408 13.8667H12.1077V15.8386H14.8759C14.7614 16.475 14.3916 17.0371 13.8523 17.3945V18.6745H15.5044C16.4717 17.7835 17.0291 16.4658 17.0291 14.9077Z" fill="#4285F4"/>
    <path fill-rule="evenodd" clip-rule="evenodd" d="M12.1078 19.9111C13.4908 19.9111 14.6554 19.4574 15.5045 18.6752L13.8524 17.3952C13.3926 17.7067 12.8004 17.8844 12.1078 17.8844C10.7711 17.8844 9.63645 16.9842 9.23072 15.771H7.52881V17.0901C8.39874 18.8195 10.1705 19.911 12.1078 19.9111Z" fill="#34A853"/>
    <path fill-rule="evenodd" clip-rule="evenodd" d="M9.23079 15.771C9.01629 15.1353 9.01629 14.4469 9.23079 13.8112V12.4921H7.52887C6.80125 13.9386 6.80125 15.6436 7.52887 17.0901L9.23079 15.771Z" fill="#FBBC04"/>
    <path fill-rule="evenodd" clip-rule="evenodd" d="M12.1078 11.6978C12.8387 11.6859 13.5449 11.9617 14.0738 12.4658L15.5366 11.0044C14.609 10.1341 13.3802 9.65626 12.1078 9.67111C10.1705 9.6712 8.39874 10.7627 7.52881 12.4921L9.23072 13.8112C9.63645 12.598 10.7711 11.6978 12.1078 11.6978Z" fill="#EA4335"/>
</svg>
