<svg width="45" height="32" viewBox="0 0 45 32" fill="none" xmlns="http://www.w3.org/2000/svg">
    <path d="M7.5 4.34462V27.6392C7.5 28.7542 8.38206 29.6665 9.46014 29.6665H22.9165C33.0897 29.6665 37.5 23.777 37.5 15.9615C37.5 8.1865 33.0897 2.31725 22.9165 2.31725H9.46014C8.38206 2.31725 7.5 3.22956 7.5 4.34462Z" fill="white"/>
    <path d="M16.5068 8.03445V25.2469H23.7496C30.3258 25.2469 33.1779 21.405 33.1779 15.9716C33.1779 10.7714 30.3258 6.73694 23.7496 6.73694H17.7613C17.0655 6.73694 16.5068 7.32486 16.5068 8.03445Z" fill="#CC0066"/>
    <path d="M22.9166 27.8115H11.2145C10.1756 27.8115 9.33276 26.9397 9.33276 25.8652V6.12873C9.33276 5.05422 10.1756 4.18245 11.2145 4.18245H22.9166C34.0208 4.18245 35.6771 11.5722 35.6771 15.9716C35.6771 23.6047 31.1394 27.8115 22.9166 27.8115ZM11.2145 4.83121C10.5187 4.83121 9.96001 5.40901 9.96001 6.12873V25.8652C9.96001 26.585 10.5187 27.1628 11.2145 27.1628H22.9166C30.7375 27.1628 35.0498 23.1891 35.0498 15.9716C35.0498 6.28079 27.4445 4.83121 22.9166 4.83121H11.2145Z" fill="black"/>
    <path d="M19.0551 13.6503C19.31 13.6503 19.5452 13.6908 19.7706 13.7719C19.996 13.853 20.1822 13.9848 20.3488 14.147C20.5056 14.3193 20.633 14.5322 20.7311 14.7755C20.8193 15.0289 20.8683 15.3229 20.8683 15.6675C20.8683 15.9716 20.8291 16.2453 20.7605 16.4988C20.682 16.7522 20.5742 16.9752 20.4272 17.1577C20.2802 17.3401 20.094 17.482 19.8686 17.5935C19.6432 17.6949 19.3785 17.7557 19.0747 17.7557H17.3596V13.6402H19.0551V13.6503ZM18.9963 17.0056C19.1237 17.0056 19.2413 16.9853 19.3688 16.9448C19.4864 16.9042 19.5942 16.8333 19.6824 16.7319C19.7706 16.6305 19.849 16.5089 19.9078 16.3467C19.9666 16.1845 19.996 16.0021 19.996 15.7689C19.996 15.5662 19.9764 15.3736 19.9372 15.2114C19.898 15.0492 19.8294 14.8971 19.7412 14.7856C19.653 14.6741 19.5354 14.5727 19.3884 14.5119C19.2413 14.4511 19.0649 14.4207 18.8493 14.4207H18.2221V17.0157H18.9963V17.0056Z" fill="white"/>
    <path d="M24.4061 13.6503V14.4105H22.3088V15.2925H24.2395V15.9919H22.3088V16.9954H24.4552V17.7557H21.4365V13.6402H24.4061V13.6503Z" fill="white"/>
    <path d="M27.4054 13.6503L28.8951 17.7659H27.9836L27.6798 16.8535H26.1901L25.8765 17.7659H24.9944L26.4939 13.6503H27.4054ZM27.4544 16.1744L26.9545 14.664H26.9447L26.4253 16.1744H27.4544Z" fill="white"/>
    <path d="M30.3161 13.6503V17.0056H32.2567V17.7659H29.4438V13.6503H30.3161Z" fill="white"/>
    <path d="M13.2334 17.6037C14.2456 17.6037 15.0661 16.755 15.0661 15.7081C15.0661 14.6612 14.2456 13.8125 13.2334 13.8125C12.2212 13.8125 11.4006 14.6612 11.4006 15.7081C11.4006 16.755 12.2212 17.6037 13.2334 17.6037Z" fill="black"/>
    <path d="M14.6154 25.2469C13.0767 25.2469 11.8418 23.9595 11.8418 22.3782V20.1379C11.8418 19.3472 12.4592 18.6985 13.2335 18.6985C13.998 18.6985 14.6252 19.3371 14.6252 20.1379V25.2469H14.6154Z" fill="black"/>
</svg>