<svg width="45" height="32" viewBox="0 0 45 32" fill="none" xmlns="http://www.w3.org/2000/svg">
    <path d="M26.6069 20.8679H18.9136V6.72309H26.6069V20.8679Z" fill="#6C6BBD"/>
    <path d="M19.402 13.7958C19.402 10.9264 20.7151 8.37052 22.76 6.72338C21.2646 5.51891 19.3774 4.8 17.3263 4.8C12.4706 4.8 8.53442 8.82748 8.53442 13.7958C8.53442 18.7641 12.4706 22.7916 17.3263 22.7916C19.3774 22.7916 21.2646 22.0727 22.76 20.8682C20.7151 19.221 19.402 16.6651 19.402 13.7958Z" fill="#EB001B"/>
    <path d="M36.9862 13.7958C36.9862 18.7641 33.0501 22.7916 28.1943 22.7916C26.1433 22.7916 24.256 22.0727 22.76 20.8682C24.8055 19.221 26.1187 16.6651 26.1187 13.7958C26.1187 10.9264 24.8055 8.37052 22.76 6.72338C24.256 5.51891 26.1433 4.8 28.1943 4.8C33.0501 4.8 36.9862 8.82748 36.9862 13.7958Z" fill="#0099DF"/>
    <path d="M29.2101 24.8648C29.3124 24.8648 29.4594 24.8848 29.5718 24.93L29.4152 25.4196C29.3079 25.3744 29.2006 25.3595 29.0977 25.3595C28.7656 25.3595 28.5996 25.5791 28.5996 25.9737V27.3132H28.0915V24.9248H28.5946V25.2148C28.7265 25.0049 28.9171 24.8648 29.2101 24.8648Z" fill="#231F20"/>
    <path d="M27.3329 25.3995H26.5027V26.4788C26.5027 26.7184 26.5855 26.8785 26.8398 26.8785C26.9717 26.8785 27.1378 26.8333 27.2887 26.7436L27.4352 27.1879C27.2742 27.3029 27.0204 27.3732 26.8007 27.3732C26.1997 27.3732 25.9901 27.0432 25.9901 26.4885V25.3995H25.516V24.9248H25.9901V24.2002H26.5027V24.9248H27.3329V25.3995Z" fill="#231F20"/>
    <path fill-rule="evenodd" clip-rule="evenodd" d="M21.462 24.8648C22.1166 24.8648 22.5661 25.3744 22.5711 26.119C22.5711 26.1882 22.5661 26.2524 22.5611 26.317L22.561 26.3186H20.8275C20.9007 26.7481 21.1987 26.9031 21.5257 26.9031C21.7599 26.9031 22.0093 26.8133 22.2044 26.6532L22.4537 27.0381C22.1703 27.2829 21.8483 27.3727 21.4966 27.3727C20.7978 27.3727 20.2998 26.878 20.2998 26.119C20.2998 25.3744 20.7783 24.8648 21.462 24.8648ZM21.4525 25.3292C21.0908 25.3292 20.8862 25.5642 20.832 25.9091H22.0434C21.9897 25.5391 21.7795 25.3292 21.4525 25.3292Z" fill="#231F20"/>
    <path d="M24.8027 25.5345C24.6613 25.4441 24.3734 25.3292 24.0754 25.3292C23.797 25.3292 23.631 25.4344 23.631 25.6094C23.631 25.769 23.8065 25.8142 24.0262 25.8439L24.2655 25.8788C24.7737 25.9543 25.0811 26.1739 25.0811 26.5937C25.0811 27.0484 24.6904 27.3732 24.0167 27.3732C23.6355 27.3732 23.2838 27.2732 23.0054 27.0633L23.2447 26.6583C23.4158 26.7933 23.6701 26.9083 24.0218 26.9083C24.3684 26.9083 24.554 26.8036 24.554 26.6183C24.554 26.4839 24.422 26.4084 24.1436 26.3689L23.9044 26.3341C23.3817 26.2586 23.0982 26.0189 23.0982 25.6294C23.0982 25.1547 23.4795 24.8648 24.0704 24.8648C24.4416 24.8648 24.7787 24.95 25.0224 25.1147L24.8027 25.5345Z" fill="#231F20"/>
    <path fill-rule="evenodd" clip-rule="evenodd" d="M31.5698 24.9614C31.4155 24.8968 31.2478 24.8648 31.0666 24.8648C30.8855 24.8648 30.7178 24.8968 30.5635 24.9614C30.4092 25.0255 30.2767 25.1141 30.1649 25.2268C30.0531 25.3395 29.9653 25.4727 29.9016 25.626C29.8379 25.7799 29.806 25.9469 29.806 26.127C29.806 26.3072 29.8379 26.4742 29.9016 26.628C29.9653 26.7813 30.0531 26.9151 30.1649 27.0278C30.2767 27.1405 30.4092 27.2285 30.5635 27.2932C30.7178 27.3572 30.8855 27.3893 31.0666 27.3893C31.2478 27.3893 31.4155 27.3572 31.5698 27.2932C31.7241 27.2285 31.8577 27.1405 31.97 27.0278C32.0829 26.9151 32.1707 26.7813 32.2344 26.628C32.2982 26.4742 32.33 26.3072 32.33 26.127C32.33 25.9469 32.2982 25.7799 32.2344 25.626C32.1707 25.4727 32.0829 25.3395 31.97 25.2268C31.8577 25.1141 31.7241 25.0255 31.5698 24.9614ZM30.7754 25.4144C30.8654 25.3772 30.9621 25.3584 31.0666 25.3584C31.1712 25.3584 31.2684 25.3772 31.3579 25.4144C31.4479 25.4522 31.5261 25.5048 31.5916 25.5723C31.6581 25.6397 31.7095 25.721 31.7475 25.8153C31.785 25.9097 31.8034 26.0138 31.8034 26.127C31.8034 26.2408 31.785 26.3444 31.7475 26.4387C31.7095 26.5331 31.6581 26.6143 31.5916 26.6818C31.5261 26.7493 31.4479 26.8019 31.3579 26.8396C31.2684 26.8774 31.1712 26.8957 31.0666 26.8957C30.9621 26.8957 30.8654 26.8774 30.7754 26.8396C30.6859 26.8019 30.6082 26.7493 30.5428 26.6818C30.4774 26.6143 30.426 26.5331 30.3885 26.4387C30.3511 26.3444 30.3326 26.2408 30.3326 26.127C30.3326 26.0138 30.3511 25.9097 30.3885 25.8153C30.426 25.721 30.4774 25.6397 30.5428 25.5723C30.6082 25.5048 30.6859 25.4522 30.7754 25.4144Z" fill="#231F20"/>
    <path fill-rule="evenodd" clip-rule="evenodd" d="M19.7547 24.9248V27.3132H19.2471V27.0232C19.0856 27.2383 18.8418 27.3732 18.5098 27.3732C17.8551 27.3732 17.3425 26.8482 17.3425 26.119C17.3425 25.3892 17.8551 24.8648 18.5098 24.8648C18.8418 24.8648 19.0856 24.9998 19.2471 25.2148V24.9248H19.7547ZM18.5729 25.3543C18.1335 25.3543 17.8646 25.6992 17.8646 26.119C17.8646 26.5388 18.1335 26.8831 18.5729 26.8831C18.9927 26.8831 19.2762 26.5537 19.2762 26.119C19.2762 25.6843 18.9927 25.3543 18.5729 25.3543Z" fill="#231F20"/>
    <path d="M16.8931 27.3132V25.8142C16.8931 25.2497 16.5414 24.8699 15.9751 24.8648C15.6772 24.8596 15.3691 24.9546 15.1545 25.2897C14.9935 25.0249 14.7391 24.8648 14.3825 24.8648C14.1337 24.8648 13.8894 24.9397 13.6988 25.2194V24.9248H13.1912V27.3132H13.7038V25.9892C13.7038 25.5745 13.9285 25.3544 14.2751 25.3544C14.6122 25.3544 14.7833 25.5791 14.7833 25.984V27.3132H15.2959V25.9892C15.2959 25.5745 15.5307 25.3544 15.8672 25.3544C16.2144 25.3544 16.3804 25.5791 16.3804 25.984V27.3132H16.8931Z" fill="#231F20"/>
</svg>