<svg width="45" height="32" viewBox="0 0 45 32" fill="none" xmlns="http://www.w3.org/2000/svg">
    <path fill-rule="evenodd" clip-rule="evenodd" d="M16.4861 24.7125V25.894V27.0755H15.9839V26.7886C15.8246 27.0013 15.5829 27.1349 15.2544 27.1349C14.6067 27.1349 14.099 26.616 14.099 25.894C14.099 25.1725 14.6067 24.6531 15.2544 24.6531C15.5829 24.6531 15.8246 24.7866 15.9839 24.9994V24.7125H16.4861ZM15.3169 25.1374C14.8822 25.1374 14.6161 25.4786 14.6161 25.894C14.6161 26.3093 14.8822 26.6505 15.3169 26.6505C15.7323 26.6505 16.0127 26.324 16.0127 25.894C16.0127 25.4639 15.7323 25.1374 15.3169 25.1374ZM33.4573 25.894C33.4573 25.4786 33.7233 25.1374 34.158 25.1374C34.574 25.1374 34.8538 25.4639 34.8538 25.894C34.8538 26.324 34.574 26.6505 34.158 26.6505C33.7233 26.6505 33.4573 26.3093 33.4573 25.894ZM35.3278 23.7636V25.894V27.0755H34.8251V26.7886C34.6658 27.0013 34.4241 27.1349 34.0955 27.1349C33.4479 27.1349 32.9401 26.616 32.9401 25.894C32.9401 25.1725 33.4479 24.6531 34.0955 24.6531C34.4241 24.6531 34.6658 24.7866 34.8251 24.9994V23.7636H35.3278ZM22.7201 25.1131C23.0436 25.1131 23.2516 25.3208 23.3047 25.6863H22.1061C22.1598 25.3451 22.3622 25.1131 22.7201 25.1131ZM21.5796 25.894C21.5796 25.1572 22.053 24.6531 22.73 24.6531C23.3771 24.6531 23.8218 25.1572 23.8268 25.894C23.8268 25.963 23.8218 26.0275 23.8168 26.0915H22.1017C22.1741 26.517 22.4689 26.6703 22.7925 26.6703C23.0243 26.6703 23.2709 26.5809 23.4645 26.423L23.7106 26.8039C23.4302 27.046 23.1116 27.1349 22.7637 27.1349C22.0724 27.1349 21.5796 26.6454 21.5796 25.894ZM28.7941 25.894C28.7941 25.4786 29.0602 25.1374 29.4949 25.1374C29.9103 25.1374 30.1907 25.4639 30.1907 25.894C30.1907 26.324 29.9103 26.6505 29.4949 26.6505C29.0602 26.6505 28.7941 26.3093 28.7941 25.894ZM30.6642 24.7125V25.894V27.0755H30.1619V26.7886C30.0021 27.0013 29.761 27.1349 29.4324 27.1349C28.7847 27.1349 28.277 26.616 28.277 25.894C28.277 25.1725 28.7847 24.6531 29.4324 24.6531C29.761 24.6531 30.0021 24.7866 30.1619 24.9994V24.7125H30.6642ZM25.9578 25.894C25.9578 26.6109 26.4457 27.1349 27.1901 27.1349C27.538 27.1349 27.7698 27.0557 28.0209 26.8531L27.7797 26.4378C27.5911 26.5764 27.3931 26.6505 27.1752 26.6505C26.7742 26.6454 26.4794 26.3489 26.4794 25.894C26.4794 25.439 26.7742 25.1425 27.1752 25.1374C27.3931 25.1374 27.5911 25.2116 27.7797 25.3502L28.0209 24.9349C27.7698 24.7323 27.538 24.6531 27.1901 24.6531C26.4457 24.6531 25.9578 25.177 25.9578 25.894ZM31.8239 24.9994C31.9544 24.7917 32.143 24.6531 32.4329 24.6531C32.5346 24.6531 32.6795 24.6729 32.7907 24.7176L32.6358 25.2019C32.5296 25.1572 32.4234 25.1425 32.3217 25.1425C31.9931 25.1425 31.8289 25.3598 31.8289 25.7508V27.0755H31.3261V24.7125H31.8239V24.9994ZM18.97 24.9003C18.7283 24.7374 18.3954 24.6531 18.0281 24.6531C17.443 24.6531 17.0663 24.94 17.0663 25.4096C17.0663 25.795 17.3467 26.0326 17.8633 26.1067L18.1006 26.1413C18.376 26.1809 18.506 26.255 18.506 26.3885C18.506 26.5713 18.3224 26.6754 17.9795 26.6754C17.6316 26.6754 17.3805 26.5617 17.2112 26.4281L16.9745 26.8282C17.2499 27.0359 17.5978 27.1349 17.9745 27.1349C18.6415 27.1349 19.0281 26.8135 19.0281 26.3636C19.0281 25.9483 18.7239 25.731 18.2212 25.6569L17.9844 25.6218C17.7671 25.5924 17.5928 25.5482 17.5928 25.3898C17.5928 25.2167 17.7571 25.1131 18.0326 25.1131C18.3274 25.1131 18.6127 25.2268 18.7527 25.3157L18.97 24.9003ZM24.8417 24.9994C24.9717 24.7917 25.1603 24.6531 25.4501 24.6531C25.5519 24.6531 25.6968 24.6729 25.808 24.7176L25.6531 25.2019C25.5469 25.1572 25.4407 25.1425 25.339 25.1425C25.0104 25.1425 24.8461 25.3598 24.8461 25.7508V27.0755H24.3439V24.7125H24.8417V24.9994ZM21.1641 24.7125H20.3428V23.9956H19.835V24.7125H19.3666V25.1821H19.835V26.2601C19.835 26.8084 20.043 27.1349 20.637 27.1349C20.8549 27.1349 21.106 27.0659 21.2653 26.9521L21.1204 26.5119C20.9705 26.6007 20.8063 26.6454 20.6757 26.6454C20.4246 26.6454 20.3428 26.487 20.3428 26.2499V25.1821H21.1641V24.7125ZM13.6548 25.5924V27.0755H13.1471V25.7604C13.1471 25.3598 12.9828 25.1374 12.6399 25.1374C12.3064 25.1374 12.0746 25.3553 12.0746 25.7655V27.0755H11.5669V25.7604C11.5669 25.3598 11.3982 25.1374 11.0647 25.1374C10.7212 25.1374 10.4989 25.3553 10.4989 25.7655V27.0755H9.9917V24.7125H10.4945V25.0039C10.6831 24.7272 10.9242 24.6531 11.1709 24.6531C11.5238 24.6531 11.7749 24.8115 11.9342 25.0735C12.1471 24.7419 12.4513 24.648 12.7461 24.6531C13.3069 24.6582 13.6548 25.0339 13.6548 25.5924Z" fill="#231F20"/>
    <path d="M26.4154 20.6973H18.8037V6.70267H26.4154V20.6973Z" fill="#FF5F00"/>
    <path d="M19.2866 13.7002C19.2866 10.8614 20.5858 8.33259 22.609 6.70295C21.1295 5.51127 19.2622 4.8 17.2329 4.8C12.4288 4.8 8.53442 8.78471 8.53442 13.7002C8.53442 18.6158 12.4288 22.6005 17.2329 22.6005C19.2622 22.6005 21.1295 21.8892 22.609 20.6975C20.5858 19.0679 19.2866 16.5391 19.2866 13.7002Z" fill="#EB001B"/>
    <path d="M36.684 13.7002C36.684 18.6158 32.7897 22.6005 27.9855 22.6005C25.9562 22.6005 24.089 21.8892 22.6089 20.6975C24.6327 19.0679 25.9319 16.5391 25.9319 13.7002C25.9319 10.8614 24.6327 8.33259 22.6089 6.70295C24.089 5.51127 25.9562 4.8 27.9855 4.8C32.7897 4.8 36.684 8.78471 36.684 13.7002Z" fill="#F79E1B"/>
</svg>