<svg width="45" height="32" viewBox="0 0 45 32" fill="none" xmlns="http://www.w3.org/2000/svg">
    <path fill-rule="evenodd" clip-rule="evenodd" d="M20.5127 16.2049L20.7086 14.9182L20.2722 14.9076H18.1882L19.6365 5.41202C19.641 5.38327 19.6556 5.35658 19.6769 5.33759C19.6983 5.3186 19.7256 5.30818 19.7541 5.30818H23.268C24.4346 5.30818 25.2396 5.55915 25.6599 6.05459C25.8569 6.28701 25.9824 6.52995 26.0432 6.7972C26.1069 7.07768 26.1079 7.41275 26.0458 7.82149L26.0413 7.85122V8.11315L26.2384 8.2286C26.4043 8.31964 26.5362 8.4238 26.6373 8.54305C26.8058 8.74183 26.9149 8.99443 26.9609 9.2938C27.0086 9.60173 26.9928 9.96826 26.9149 10.3832C26.8249 10.8604 26.6796 11.2761 26.4833 11.6161C26.3028 11.9295 26.0728 12.1895 25.7996 12.3909C25.5389 12.5823 25.2291 12.7276 24.8789 12.8205C24.5394 12.9119 24.1524 12.958 23.728 12.958H23.4545C23.259 12.958 23.0691 13.0308 22.92 13.1614C22.7705 13.2946 22.6716 13.4767 22.6413 13.6758L22.6206 13.7917L22.2745 16.0597L22.2588 16.143C22.2546 16.1693 22.2475 16.1825 22.237 16.1914C22.2277 16.1995 22.2142 16.2049 22.2011 16.2049H20.5127Z" fill="#28356A"/>
    <path fill-rule="evenodd" clip-rule="evenodd" d="M26.4252 7.88148C26.4148 7.95082 26.4027 8.02167 26.3893 8.09448C25.9259 10.5547 24.3405 11.4046 22.3158 11.4046H21.2848C21.0372 11.4046 20.8285 11.5905 20.7899 11.8431L20.1126 16.2859C20.0875 16.4518 20.2111 16.6012 20.373 16.6012H22.2015C22.418 16.6012 22.6019 16.4385 22.636 16.2177L22.654 16.1217L22.9982 13.8625L23.0204 13.7386C23.0541 13.517 23.2384 13.3543 23.4549 13.3543H23.7283C25.4999 13.3543 26.8868 12.6106 27.2921 10.4583C27.4614 9.55919 27.3738 8.80844 26.9257 8.28046C26.7901 8.12128 26.6219 7.98912 26.4252 7.88148Z" fill="#298FC2"/>
    <path fill-rule="evenodd" clip-rule="evenodd" d="M25.9404 7.68162C25.8695 7.66025 25.7965 7.64093 25.7216 7.62347C25.6462 7.60643 25.5691 7.59135 25.4897 7.57811C25.2117 7.53167 24.9071 7.50964 24.5809 7.50964H21.8267C21.7588 7.50964 21.6944 7.52549 21.6368 7.55413C21.5097 7.61728 21.4154 7.74163 21.3925 7.89386L20.8066 11.7313L20.7898 11.8431C20.8283 11.5905 21.037 11.4047 21.2847 11.4047H22.3156C24.3404 11.4047 25.9258 10.5543 26.3891 8.09449C26.403 8.02168 26.4146 7.95083 26.425 7.88149C26.3078 7.81715 26.1809 7.76214 26.0441 7.71526C26.0103 7.70365 25.9755 7.69247 25.9404 7.68162Z" fill="#22284F"/>
    <path fill-rule="evenodd" clip-rule="evenodd" d="M21.3925 7.89386C21.4154 7.74162 21.5098 7.61728 21.6368 7.55456C21.6949 7.52581 21.7589 7.50997 21.8268 7.50997H24.5809C24.9071 7.50997 25.2117 7.5321 25.4897 7.57854C25.5691 7.59167 25.6463 7.60686 25.7216 7.6239C25.7965 7.64126 25.8696 7.66068 25.9404 7.68195C25.9755 7.6928 26.0104 7.70408 26.0445 7.71526C26.1812 7.76213 26.3083 7.81758 26.4255 7.88149C26.5634 6.97232 26.4243 6.3533 25.949 5.79276C25.4249 5.17559 24.479 4.91148 23.2686 4.91148H19.7547C19.5075 4.91148 19.2965 5.09735 19.2583 5.35039L17.7948 14.9437C17.7659 15.1334 17.9075 15.3047 18.0926 15.3047H20.2619L21.3925 7.89386Z" fill="#28356A"/>
    <path fill-rule="evenodd" clip-rule="evenodd" d="M10.1595 18.8167H7.5975C7.42216 18.8167 7.27305 18.9484 7.24567 19.1274L6.20947 25.9207C6.1889 26.0548 6.28932 26.1756 6.4208 26.1756H7.64388C7.81922 26.1756 7.96833 26.044 7.99572 25.8646L8.27515 24.0323C8.30212 23.8529 8.45154 23.7212 8.62656 23.7212H9.43758C11.1252 23.7212 12.0992 22.8767 12.3536 21.2033C12.4682 20.4712 12.3585 19.896 12.0269 19.4931C11.6628 19.0507 11.0169 18.8167 10.1595 18.8167ZM10.4549 21.2979C10.3148 22.2485 9.61243 22.2485 8.93332 22.2485H8.54665L8.81789 20.4731C8.83405 20.3658 8.92387 20.2868 9.02881 20.2868H9.20603C9.66868 20.2868 10.1051 20.2868 10.3306 20.5595C10.4651 20.7221 10.5062 20.9639 10.4549 21.2979Z" fill="#28356A"/>
    <path fill-rule="evenodd" clip-rule="evenodd" d="M17.8833 21.2159H16.6565C16.552 21.2159 16.4616 21.2949 16.4456 21.4022L16.3912 21.757L16.3055 21.6284C16.0399 21.2298 15.4476 21.0965 14.8565 21.0965C13.5007 21.0965 12.3428 22.1584 12.1173 23.6478C12 24.3908 12.1667 25.1013 12.5743 25.5967C12.9482 26.0522 13.4831 26.2421 14.1196 26.2421C15.212 26.2421 15.8177 25.5157 15.8177 25.5157L15.763 25.8683C15.7424 26.003 15.8428 26.1239 15.9736 26.1239H17.0786C17.2544 26.1239 17.4028 25.9922 17.4305 25.8128L18.0935 21.4708C18.1145 21.3371 18.0144 21.2159 17.8833 21.2159ZM16.1732 23.685C16.0548 24.4097 15.4986 24.8963 14.789 24.8963C14.4328 24.8963 14.1481 24.7781 13.9652 24.5543C13.7839 24.332 13.715 24.0154 13.7726 23.6629C13.8832 22.9444 14.4488 22.4419 15.1476 22.4419C15.4959 22.4419 15.7791 22.5617 15.9657 22.7874C16.1526 23.0156 16.2268 23.334 16.1732 23.685Z" fill="#28356A"/>
    <path fill-rule="evenodd" clip-rule="evenodd" d="M24.3231 21.3245H23.0902C22.9725 21.3245 22.862 21.385 22.7954 21.4861L21.095 24.076L20.3742 21.5871C20.3289 21.4314 20.19 21.3245 20.0326 21.3245H18.8211C18.6738 21.3245 18.5716 21.4733 18.6184 21.6166L19.9764 25.7374L18.6997 27.6011C18.5993 27.7479 18.7005 27.9497 18.8739 27.9497H20.1053C20.2222 27.9497 20.3315 27.8908 20.3978 27.7918L24.4983 21.6712C24.5966 21.5248 24.4957 21.3245 24.3231 21.3245Z" fill="#28356A"/>
    <path fill-rule="evenodd" clip-rule="evenodd" d="M28.4331 18.8167H25.8708C25.6958 18.8167 25.5467 18.9484 25.5193 19.1274L24.4831 25.9207C24.4626 26.0548 24.563 26.1756 24.6937 26.1756H26.0086C26.1307 26.1756 26.2352 26.0835 26.2543 25.9579L26.5484 24.0323C26.5754 23.8529 26.7249 23.7212 26.8998 23.7212H27.7105C29.3985 23.7212 30.3721 22.8767 30.6269 21.2033C30.7419 20.4712 30.6314 19.896 30.2998 19.4931C29.936 19.0507 29.2906 18.8167 28.4331 18.8167ZM28.7287 21.2979C28.5889 22.2485 27.8865 22.2485 27.207 22.2485H26.8209L27.0924 20.4731C27.1085 20.3658 27.1977 20.2868 27.3029 20.2868H27.4801C27.9424 20.2868 28.3792 20.2868 28.6047 20.5595C28.7392 20.7221 28.78 20.9639 28.7287 21.2979Z" fill="#298FC2"/>
    <path fill-rule="evenodd" clip-rule="evenodd" d="M36.1551 21.2159H34.929C34.8238 21.2159 34.7343 21.2949 34.7185 21.4022L34.6642 21.757L34.578 21.6284C34.3124 21.2298 33.7205 21.0965 33.1293 21.0965C31.7736 21.0965 30.6161 22.1584 30.3906 23.6478C30.2737 24.3908 30.4396 25.1013 30.8472 25.5967C31.2219 26.0522 31.756 26.2421 32.3925 26.2421C33.4848 26.2421 34.0906 25.5157 34.0906 25.5157L34.0359 25.8683C34.0154 26.003 34.1157 26.1239 34.2473 26.1239H35.352C35.5269 26.1239 35.676 25.9922 35.7034 25.8128L36.3668 21.4708C36.387 21.3371 36.2866 21.2159 36.1551 21.2159ZM34.445 23.685C34.3274 24.4097 33.7703 24.8963 33.0607 24.8963C32.7052 24.8963 32.4198 24.7781 32.2369 24.5543C32.0557 24.332 31.9875 24.0154 32.0444 23.6629C32.1557 22.9444 32.7205 22.4419 33.4193 22.4419C33.7677 22.4419 34.0509 22.5617 34.2374 22.7874C34.4251 23.0156 34.4992 23.334 34.445 23.685Z" fill="#298FC2"/>
    <path fill-rule="evenodd" clip-rule="evenodd" d="M37.4993 19.0034L36.4478 25.921C36.4272 26.0552 36.5275 26.1759 36.6582 26.1759H37.7154C37.8912 26.1759 38.0402 26.0443 38.0672 25.8649L39.1041 19.072C39.1248 18.9379 39.0243 18.8167 38.8936 18.8167H37.7099C37.6054 18.817 37.5154 18.8961 37.4993 19.0034Z" fill="#298FC2"/>
</svg>
