<svg width="45" height="32" viewBox="0 0 45 32" fill="none" xmlns="http://www.w3.org/2000/svg">
    <path d="M19.9799 21.9466H16.9839L18.8578 10.746H21.8536L19.9799 21.9466Z" fill="#15195A"/>
    <path d="M30.8404 11.0198C30.2495 10.7932 29.3122 10.543 28.1532 10.543C25.1946 10.543 23.1112 12.0681 23.0984 14.2485C23.0738 15.8573 24.5901 16.7508 25.7241 17.2872C26.8832 17.8353 27.2772 18.1931 27.2772 18.6816C27.2654 19.432 26.3406 19.7779 25.478 19.7779C24.2819 19.7779 23.641 19.5995 22.667 19.1821L22.2725 19.0031L21.8533 21.5174C22.5559 21.8269 23.8505 22.1015 25.1946 22.1135C28.3382 22.1135 30.3848 20.612 30.409 18.2884C30.421 17.0134 29.6203 16.0364 27.8942 15.238C26.8464 14.7255 26.2046 14.38 26.2046 13.8556C26.2169 13.3789 26.7474 12.8907 27.9303 12.8907C28.9042 12.8668 29.6199 13.0931 30.162 13.3195L30.4329 13.4385L30.8404 11.0198Z" fill="#15195A"/>
    <path fill-rule="evenodd" clip-rule="evenodd" d="M36.2033 10.746H38.5207L40.9377 21.9464H38.1637C38.1637 21.9464 37.8922 20.6595 37.8062 20.2663H33.9596C33.8484 20.564 33.3308 21.9464 33.3308 21.9464H30.1873L34.6374 11.6753C34.9457 10.9484 35.4887 10.746 36.2033 10.746ZM36.0187 14.8448C36.0187 14.8448 35.0693 17.3352 34.8226 17.9786H37.3128C37.1896 17.4186 36.6223 14.7376 36.6223 14.7376L36.4129 13.7725C36.3247 14.021 36.1972 14.3627 36.1112 14.5931C36.0529 14.7493 36.0137 14.8545 36.0187 14.8448Z" fill="#15195A"/>
    <path fill-rule="evenodd" clip-rule="evenodd" d="M4.00268 10.746H8.82292C9.47628 10.7696 10.0064 10.9722 10.179 11.6875L11.2264 16.8332C11.2266 16.8337 11.2267 16.8342 11.2269 16.8347L11.5475 18.3837L14.4815 10.746H17.6495L12.9404 21.9347H9.77221L7.10191 12.2024C6.18056 11.6817 5.12903 11.263 3.95337 10.9723L4.00268 10.746Z" fill="#15195A"/>
</svg>