<svg width="20" height="20" viewBox="0 0 20 20" fill="none" xmlns="http://www.w3.org/2000/svg">
    <path fill-rule="evenodd" clip-rule="evenodd"
          d="M2 4.25C2 2.73122 3.23122 1.5 4.75 1.5H15.25C16.7688 1.5 18 2.73122 18 4.25V12.5916C18 14.1103 16.7688 15.3416 15.25 15.3416H10.2726L6.71165 18.3249C6.4883 18.512 6.1768 18.5528 5.91277 18.4296C5.64875 18.3064 5.48 18.0414 5.48 17.75V15.3416H4.75C3.23122 15.3416 2 14.1103 2 12.5916V4.25ZM4.75 3C4.05965 3 3.5 3.55965 3.5 4.25V12.5916C3.5 13.2819 4.05964 13.8416 4.75 13.8416H6.23C6.64421 13.8416 6.98 14.1774 6.98 14.5916V16.1432L9.51835 14.0167C9.65336 13.9036 9.82387 13.8416 10 13.8416H15.25C15.9404 13.8416 16.5 13.2819 16.5 12.5916V4.25C16.5 3.55964 15.9404 3 15.25 3H4.75ZM4.99782 5.25C4.99782 4.83579 5.33361 4.5 5.74782 4.5H14.2492C14.6634 4.5 14.9992 4.83579 14.9992 5.25C14.9992 5.66421 14.6634 6 14.2492 6H5.74782C5.33361 6 4.99782 5.66421 4.99782 5.25ZM4.99782 8.25C4.99782 7.83579 5.33361 7.5 5.74782 7.5H14.2492C14.6634 7.5 14.9992 7.83579 14.9992 8.25C14.9992 8.66421 14.6634 9 14.2492 9H5.74782C5.33361 9 4.99782 8.66421 4.99782 8.25ZM4.99782 11.25C4.99782 10.8358 5.33361 10.5 5.74782 10.5H10.2486C10.6628 10.5 10.9986 10.8358 10.9986 11.25C10.9986 11.6642 10.6628 12 10.2486 12H5.74782C5.33361 12 4.99782 11.6642 4.99782 11.25Z"
          fill="white"/>
</svg>