<svg class="svg-icon"
     style="width: 1em; height: 1em;vertical-align: middle;fill: currentColor;overflow: hidden;"
     viewBox="0 0 1024 1024" version="1.1" xmlns="http://www.w3.org/2000/svg">
    <path
        d="M232.2432 851.7632v-36.864c0-0.512 0.4096-0.9216 0.9216-0.9216H635.904c0.512 0 0.9216 0.4096 0.9216 0.9216v36.864c0 0.512-0.4096 0.9216-0.9216 0.9216H233.1648c-0.512 0-0.9216-0.4096-0.9216-0.9216zM232.2432 713.728v-36.864c0-0.512 0.4096-0.9216 0.9216-0.9216h301.7728c0.512 0 0.9216 0.4096 0.9216 0.9216v36.864c0 0.512-0.4096 0.9216-0.9216 0.9216H233.1648c-0.512 0-0.9216-0.4096-0.9216-0.9216zM232.2432 575.6928v-36.864c0-0.512 0.4096-0.9216 0.9216-0.9216h194.9696c0.512 0 0.9216 0.4096 0.9216 0.9216v36.864c0 0.512-0.4096 0.9216-0.9216 0.9216H233.1648c-0.512 0.1024-0.9216-0.4096-0.9216-0.9216zM947.2 211.2512l-55.7056-54.784c-15.36-15.1552-40.3456-15.1552-55.7056 0L780.288 211.0464 730.3168 260.096l-9.216 9.0112-150.4256 147.456-34.6112 139.9808 145.7152-30.4128 0.1024 0.1024 209.6128-205.5168 55.7056-54.784c15.36-15.0528 15.36-39.6288 0-54.6816zM583.3728 510.1568l16.4864-64.6144 52.736 52.1216-69.2224 12.4928z m93.696-33.792l-55.6032-54.8864 158.6176-155.5456 55.6032 54.784-158.6176 155.648z m186.6752-182.9888l-55.6032-54.8864 55.6032-54.6816 55.7056 54.784-55.7056 54.784z"
        fill="#ffff"/>
    <path
        d="M808.7552 867.4304c0 32.0512-26.5216 58.0608-59.0848 58.0608H237.8752c-32.5632 0-59.0848-26.112-59.0848-58.0608V286.4128c0-32.0512 26.5216-58.0608 59.0848-58.0608h440.4224v-38.7072H237.8752c-54.272 0-98.4064 43.4176-98.4064 96.8704v581.0176c0 53.3504 44.1344 96.8704 98.4064 96.8704h511.7952c54.272 0 98.4064-43.4176 98.4064-96.8704V458.752h-39.3216v408.6784z"
        fill="#ffff"/>
</svg>