<svg width="200" height="50" viewBox="0 0 200 50" fill="none" xmlns="http://www.w3.org/2000/svg">
    <g clip-path="url(#clip0_50_277)">
        <path d="M81.1894 18.813C77.7687 18.813 75 21.5801 75 24.9992C75 28.4183 77.7656 31.187 81.1894 31.187C84.6038 31.187 87.3756 28.423 87.3756 24.9992C87.3756 21.5801 84.6038 18.813 81.1894 18.813ZM100.321 18.813C96.9077 18.813 94.1312 21.5785 94.1312 24.9977C94.1312 28.4168 96.9045 31.1855 100.321 31.1855C103.737 31.1855 106.513 28.4215 106.513 24.9977C106.51 21.5801 103.737 18.813 100.321 18.813ZM118.815 18.813C115.396 18.813 112.624 21.5801 112.624 25.0008C112.624 28.4168 115.392 31.1855 118.815 31.1855C122.228 31.1855 125 28.4215 125 25.0008C125 21.5801 122.228 18.813 118.815 18.813Z" fill="black"/>
    </g>
    <g clip-path="url(#clip1_50_277)">
        <path d="M156.189 18.813C152.769 18.813 150 21.5801 150 24.9992C150 28.4183 152.766 31.187 156.189 31.187C159.604 31.187 162.376 28.423 162.376 24.9992C162.376 21.5801 159.604 18.813 156.189 18.813ZM175.321 18.813C171.908 18.813 169.131 21.5785 169.131 24.9977C169.131 28.4168 171.905 31.1855 175.321 31.1855C178.737 31.1855 181.513 28.4215 181.513 24.9977C181.51 21.5801 178.737 18.813 175.321 18.813ZM193.815 18.813C190.396 18.813 187.624 21.5801 187.624 25.0008C187.624 28.4168 190.392 31.1855 193.815 31.1855C197.228 31.1855 200 28.4215 200 25.0008C200 21.5801 197.228 18.813 193.815 18.813Z" fill="black"/>
    </g>
    <g clip-path="url(#clip2_50_277)">
        <path d="M6.18936 18.813C2.76868 18.813 0 21.5801 0 24.9992C0 28.4183 2.76556 31.187 6.18936 31.187C9.60381 31.187 12.3756 28.423 12.3756 24.9992C12.3756 21.5801 9.60381 18.813 6.18936 18.813ZM25.3205 18.813C21.9077 18.813 19.1312 21.5785 19.1312 24.9977C19.1312 28.4168 21.9045 31.1855 25.3205 31.1855C28.7365 31.1855 31.513 28.4215 31.513 24.9977C31.5099 21.5801 28.7365 18.813 25.3205 18.813ZM43.8153 18.813C40.3962 18.813 37.6244 21.5801 37.6244 25.0008C37.6244 28.4168 40.3915 31.1855 43.8153 31.1855C47.2282 31.1855 50 28.4215 50 25.0008C50 21.5801 47.2282 18.813 43.8153 18.813Z" fill="black"/>
    </g>
    <defs>
        <clipPath id="clip0_50_277">
            <rect width="50" height="50" fill="white" transform="translate(75)"/>
        </clipPath>
        <clipPath id="clip1_50_277">
            <rect width="50" height="50" fill="white" transform="translate(150)"/>
        </clipPath>
        <clipPath id="clip2_50_277">
            <rect width="50" height="50" fill="white"/>
        </clipPath>
    </defs>
</svg>
